<?xml version="1.0" encoding="UTF-8" standalone="no"?>
<svg
   version="1.0"
   width="227.000000pt"
   height="235.000000pt"
   viewBox="0 0 227.000000 235.000000"
   preserveAspectRatio="xMidYMid meet"
   id="svg25"
   sodipodi:docname="modified_seismap.svg"
   inkscape:version="1.3.2 (091e20e, 2023-11-25, custom)"
   xmlns:inkscape="http://www.inkscape.org/namespaces/inkscape"
   xmlns:sodipodi="http://sodipodi.sourceforge.net/DTD/sodipodi-0.dtd"
   xmlns="http://www.w3.org/2000/svg"
   xmlns:svg="http://www.w3.org/2000/svg">
  <defs
     id="defs25" />
  <sodipodi:namedview
     id="namedview25"
     pagecolor="#ffffff"
     bordercolor="#000000"
     borderopacity="0.25"
     inkscape:showpageshadow="2"
     inkscape:pageopacity="0.0"
     inkscape:pagecheckerboard="0"
     inkscape:deskcolor="#d1d1d1"
     inkscape:document-units="pt"
     showguides="true"
     inkscape:zoom="1.1306186"
     inkscape:cx="122.49931"
     inkscape:cy="213.59988"
     inkscape:window-width="1366"
     inkscape:window-height="697"
     inkscape:window-x="-8"
     inkscape:window-y="-8"
     inkscape:window-maximized="1"
     inkscape:current-layer="svg25">
    <sodipodi:guide
       position="42.684632,214.36127"
       orientation="0,-1"
       id="guide25"
       inkscape:locked="false" />
    <sodipodi:guide
       position="51.596808,27.67465"
       orientation="0,-1"
       id="guide26"
       inkscape:locked="false" />
    <sodipodi:guide
       position="203.1038,194.19161"
       orientation="1,0"
       id="guide27"
       inkscape:locked="false" />
    <sodipodi:guide
       position="18.762476,193.25349"
       orientation="1,0"
       id="guide28"
       inkscape:locked="false" />
  </sodipodi:namedview>
  <g
     transform="matrix(0.12196536,0,0,-0.12353118,-21.530056,262.17647)"
     fill="#00abf0"
     stroke="none"
     id="g25"
     style="fill:#00abf0;fill-opacity:0.99">
    <path
       d="m 1165,2110 c -11,-12 -20,-41 -23,-73 -3,-42 0,-58 20,-86 37,-55 71,-75 128,-75 82,0 150,68 150,150 v 43 l -63,20 c -35,10 -86,22 -113,26 -27,4 -56,9 -65,11 -9,2 -24,-5 -34,-16 z"
       id="path1"
       style="fill:#00abf0;fill-opacity:0.99" />
    <path
       d="m 640,2000 c -61,-37 -198,-147 -199,-161 -1,-10 40,-19 93,-19 63,0 121,32 151,85 26,43 43,119 28,128 -4,3 -37,-12 -73,-33 z"
       id="path2"
       style="fill:#00abf0;fill-opacity:0.99" />
    <path
       d="m 908,2030 c -81,-24 -138,-91 -146,-169 -15,-160 142,-269 285,-200 158,77 139,314 -30,364 -56,16 -69,17 -109,5 z"
       id="path3"
       style="fill:#00abf0;fill-opacity:0.99" />
    <path
       d="m 1500,2011 c -5,-11 -10,-38 -10,-60 0,-49 45,-106 90,-116 38,-8 91,9 119,39 l 22,23 -38,30 c -51,41 -150,103 -162,103 -6,0 -15,-9 -21,-19 z"
       id="path4"
       style="fill:#00abf0;fill-opacity:0.99" />
    <path
       d="m 1711,1814 c -47,-72 -64,-135 -59,-220 6,-95 41,-166 114,-233 59,-54 150,-91 221,-91 h 36 l -6,63 c -11,116 -76,289 -150,397 -36,53 -106,130 -117,130 -5,0 -22,-21 -39,-46 z"
       id="path5"
       style="fill:#00abf0;fill-opacity:0.99" />
    <path
       d="m 1301,1829 c -74,-23 -151,-132 -151,-215 0,-83 58,-170 135,-205 83,-38 211,-10 264,57 85,109 60,268 -53,338 -53,33 -134,43 -195,25 z"
       id="path6"
       style="fill:#00abf0;fill-opacity:0.99" />
    <path
       d="m 585,1755 c -109,-39 -136,-178 -50,-254 65,-56 157,-51 213,13 43,50 50,104 20,164 -36,73 -109,104 -183,77 z"
       id="path7"
       style="fill:#00abf0;fill-opacity:0.99" />
    <path
       d="m 316,1671 c -30,-46 -68,-137 -89,-208 l -16,-53 40,-10 c 55,-15 106,-3 149,36 63,57 73,137 28,212 -17,27 -63,62 -82,62 -3,0 -17,-17 -30,-39 z"
       id="path8"
       style="fill:#00abf0;fill-opacity:0.99" />
    <path
       d="m 1015,1621 c -76,-32 -79,-130 -5,-161 96,-40 165,96 77,150 -35,22 -42,23 -72,11 z"
       id="path9"
       style="fill:#00abf0;fill-opacity:0.99" />
    <path
       d="m 785,1466 c -38,-17 -90,-72 -104,-109 -48,-127 69,-274 203,-253 147,24 213,195 119,307 -53,62 -148,86 -218,55 z"
       id="path10"
       style="fill:#00abf0;fill-opacity:0.99" />
    <path
       d="m 541,1401 c -16,-29 -14,-46 9,-66 41,-37 102,17 73,64 -16,25 -69,26 -82,2 z"
       id="path11"
       style="fill:#00abf0;fill-opacity:0.99" />
    <path
       d="m 1164,1371 c -107,-50 -115,-205 -12,-265 96,-57 215,6 225,121 11,112 -109,193 -213,144 z"
       id="path12"
       style="fill:#00abf0;fill-opacity:0.99" />
    <path
       d="m 290,1353 c -40,-36 -51,-97 -24,-142 19,-31 67,-61 101,-61 31,0 82,38 100,75 50,105 -90,206 -177,128 z"
       id="path13"
       style="fill:#00abf0;fill-opacity:0.99" />
    <path
       d="m 1470,1335 c -33,-36 -31,-91 5,-122 37,-33 80,-30 117,7 26,27 30,36 25,68 -8,46 -38,72 -86,72 -27,0 -44,-7 -61,-25 z"
       id="path14"
       style="fill:#00abf0;fill-opacity:0.99" />
    <path
       d="m 1718,1259 c -47,-14 -113,-71 -138,-120 -26,-50 -26,-139 -1,-195 27,-59 92,-111 157,-124 200,-42 345,182 229,353 -49,71 -160,110 -247,86 z"
       id="path15"
       style="fill:#00abf0;fill-opacity:0.99" />
    <path
       d="m 545,1241 c -61,-25 -77,-100 -30,-146 66,-67 179,22 134,107 -8,15 -68,50 -81,47 -2,0 -12,-4 -23,-8 z"
       id="path16"
       style="fill:#00abf0;fill-opacity:0.99" />
    <path
       d="m 302,1090 c -68,-42 -89,-117 -53,-195 28,-60 53,-78 119,-83 47,-3 63,0 91,20 40,27 71,81 71,123 0,48 -40,116 -80,137 -45,24 -107,23 -148,-2 z"
       id="path17"
       style="fill:#00abf0;fill-opacity:0.99" />
    <path
       d="m 1375,1098 c -35,-19 -55,-52 -55,-91 0,-31 7,-46 34,-73 51,-51 118,-43 156,18 55,87 -45,196 -135,146 z"
       id="path18"
       style="fill:#00abf0;fill-opacity:0.99" />
    <path
       d="M 967,1046 C 812,990 737,835 786,670 809,594 893,511 974,486 c 141,-44 289,17 359,149 18,32 22,57 22,130 0,81 -3,95 -30,144 -36,65 -92,115 -153,135 -56,19 -154,20 -205,2 z"
       id="path19"
       style="fill:#00abf0;fill-opacity:0.99" />
    <path
       d="m 589,1011 c -21,-22 -29,-39 -29,-66 0,-52 44,-95 97,-95 49,0 78,21 93,65 31,95 -89,167 -161,96 z"
       id="path20"
       style="fill:#00abf0;fill-opacity:0.99" />
    <path
       d="m 1490,818 c -67,-34 -93,-79 -88,-153 4,-69 24,-103 79,-134 124,-70 275,44 239,179 -20,75 -90,130 -165,130 -12,0 -41,-10 -65,-22 z"
       id="path21"
       style="fill:#00abf0;fill-opacity:0.99" />
    <path
       d="m 475,795 c -44,-24 -76,-56 -92,-93 -13,-32 -12,-35 16,-70 41,-51 117,-123 170,-161 l 44,-31 39,23 c 55,31 88,89 88,158 0,66 -22,112 -73,153 -31,25 -49,31 -100,34 -44,2 -71,-2 -92,-13 z"
       id="path22"
       style="fill:#00abf0;fill-opacity:0.99" />
    <path
       d="m 1322,520 c -61,-38 -66,-108 -10,-155 40,-34 79,-32 120,4 87,78 -11,213 -110,151 z"
       id="path23"
       style="fill:#00abf0;fill-opacity:0.99" />
    <path
       d="m 763,498 c -12,-6 -27,-25 -33,-43 -16,-49 0,-80 54,-100 43,-16 47,-17 71,-1 94,62 10,193 -92,144 z"
       id="path24"
       style="fill:#00abf0;fill-opacity:0.99" />
    <path
       d="m 1050,430 c -37,-9 -110,-78 -110,-104 0,-23 130,-39 236,-29 64,6 65,6 59,32 -4,14 -21,41 -38,59 -28,29 -42,36 -97,47 -8,1 -31,-1 -50,-5 z"
       id="path25"
       style="fill:#00abf0;fill-opacity:0.99" />
  </g>
</svg>
